<?xml version="1.0" encoding="utf-8"?>
<!-- Generator: Adobe Illustrator 26.2.1, SVG Export Plug-In . SVG Version: 6.00 Build 0)  -->
<svg version="1.1" id="Layer_1" xmlns="http://www.w3.org/2000/svg" xmlns:xlink="http://www.w3.org/1999/xlink" x="0px" y="0px"
	 viewBox="0 0 1280 1004" style="enable-background:new 0 0 1280 1004;" xml:space="preserve">
<style type="text/css">
	.st0{clip-path:url(#SVGID_00000050629046663353830430000009798046104970096000_);fill:#0A546E;}
	.st1{clip-path:url(#SVGID_00000050629046663353830430000009798046104970096000_);fill:#0AA6B0;}
	.st2{clip-path:url(#SVGID_00000050629046663353830430000009798046104970096000_);fill:#0AADD1;}
	.st3{clip-path:url(#SVGID_00000050629046663353830430000009798046104970096000_);fill:#0A6999;}
	.st4{clip-path:url(#SVGID_00000050629046663353830430000009798046104970096000_);fill:#0A4F82;}
	.st5{clip-path:url(#SVGID_00000050629046663353830430000009798046104970096000_);fill:#0A7899;}
	.st6{clip-path:url(#SVGID_00000050629046663353830430000009798046104970096000_);fill:#0A8FA6;}
	.st7{clip-path:url(#SVGID_00000050629046663353830430000009798046104970096000_);fill:#38C2CC;}
	.st8{clip-path:url(#SVGID_00000050629046663353830430000009798046104970096000_);fill:#373535;}
	
		.st9{clip-path:url(#SVGID_00000050629046663353830430000009798046104970096000_);fill:none;stroke:#FFFFFF;stroke-width:0.75;stroke-miterlimit:4.4;}
</style>
<g>
	<defs>
		<rect id="SVGID_1_" x="11.25" y="140.72" width="1258.19" height="770.17"/>
	</defs>
	<clipPath id="SVGID_00000160166078916449850060000003142225942061134266_">
		<use xlink:href="#SVGID_1_"  style="overflow:visible;"/>
	</clipPath>
	<path style="clip-path:url(#SVGID_00000160166078916449850060000003142225942061134266_);fill:#0A546E;" d="M818.94,469.88
		c0,102.25-82.89,185.15-185.15,185.15c-102.25,0-185.15-82.9-185.15-185.15c0-102.26,184.73-328.01,185.15-329.16
		C634.2,139.6,818.94,367.62,818.94,469.88"/>
	<path style="clip-path:url(#SVGID_00000160166078916449850060000003142225942061134266_);fill:#0AA6B0;" d="M656.82,731.28
		c0,13.85-11.22,25.07-25.06,25.07c-13.85,0-25.07-11.22-25.07-25.07c0-13.85,25.01-44.41,25.07-44.56
		C631.81,686.57,656.82,717.43,656.82,731.28"/>
	<path style="clip-path:url(#SVGID_00000160166078916449850060000003142225942061134266_);fill:#0AADD1;" d="M553.11,910.41
		c0,0-2.27-0.05-6.52-0.14c-4.25-0.16-10.49-0.3-18.42-0.83c-7.93-0.51-17.56-1.18-28.58-2.37c-11.02-1.19-23.44-2.83-36.92-5.13
		c-13.48-2.34-28.03-5.33-43.26-9.34c-15.23-4.02-31.16-9.02-47.22-15.64c-4.02-1.65-8.04-3.4-12.06-5.27
		c-4.01-1.9-8.01-3.9-11.99-6.03c-7.95-4.3-15.85-9.11-23.35-14.86c-7.47-5.75-14.72-12.3-20.74-20.38c-3-4.05-5.68-8.46-7.82-13.26
		c-2.14-4.79-3.63-10.01-4.34-15.38c-0.12-1.35-0.3-2.7-0.31-4.06l-0.05-2.03l0.05-1.96l0.02-0.85l0.09-1.08l0.2-2.19
		c0.21-1.34,0.35-2.69,0.66-4c0.49-2.66,1.29-5.21,2.15-7.72c0.93-2.47,1.94-4.9,3.16-7.18c2.36-4.62,5.23-8.83,8.39-12.65
		c3.15-3.84,6.56-7.33,10.1-10.55c7.09-6.45,14.74-11.82,22.52-16.54c7.79-4.7,15.71-8.8,23.66-12.38
		c15.87-7.2,31.71-12.59,46.86-16.96c15.16-4.34,29.67-7.6,43.11-10.15c13.45-2.54,25.84-4.35,36.85-5.68
		c11.01-1.36,20.63-2.15,28.55-2.75c7.92-0.63,14.16-0.83,18.41-1.05c4.25-0.14,6.52-0.21,6.52-0.21s-2.23,0.41-6.41,1.18
		c-4.18,0.76-10.29,1.94-18.06,3.43c-7.77,1.51-17.16,3.47-27.89,5.87c-10.72,2.41-22.76,5.28-35.76,8.82
		c-13,3.52-26.96,7.68-41.44,12.75c-14.47,5.06-29.48,11.02-44.26,18.38c-7.37,3.7-14.68,7.73-21.71,12.24
		c-3.5,2.27-6.94,4.66-10.24,7.19c-3.32,2.51-6.52,5.17-9.51,7.99c-5.97,5.62-11.22,11.93-14.68,18.76c-0.9,1.7-1.59,3.45-2.26,5.2
		c-0.57,1.76-1.14,3.53-1.44,5.33c-0.22,0.89-0.28,1.8-0.44,2.69l-0.1,1.18l-0.06,0.61l-0.02,0.85l-0.04,1.43l0.05,1.35
		c0,0.9,0.16,1.8,0.21,2.7c0.47,3.59,1.43,7.17,2.96,10.64c1.53,3.47,3.52,6.84,5.87,10.04c4.75,6.4,10.74,12.22,17.29,17.39
		c3.27,2.6,6.71,5.03,10.22,7.36c3.51,2.34,7.09,4.55,10.74,6.65c7.31,4.18,14.81,7.92,22.33,11.38
		c15.08,6.85,30.24,12.46,44.83,17.2c14.6,4.75,28.65,8.66,41.7,11.98c13.06,3.31,25.15,6.01,35.9,8.28
		c10.76,2.23,20.18,4.08,27.97,5.49c7.79,1.39,13.92,2.5,18.11,3.2C550.88,910.03,553.11,910.41,553.11,910.41"/>
	<path style="clip-path:url(#SVGID_00000160166078916449850060000003142225942061134266_);fill:#0AADD1;" d="M747.08,682.91
		c0,0,2.25,0.1,6.45,0.29c4.2,0.26,10.39,0.54,18.23,1.27c7.84,0.69,17.37,1.61,28.26,3.1c10.89,1.46,23.15,3.46,36.45,6.17
		c13.29,2.75,27.62,6.22,42.56,10.85c14.93,4.65,30.53,10.37,46.06,18.06c7.76,3.85,15.51,8.19,23.02,13.3
		c7.51,5.1,14.85,10.92,21.41,18c3.27,3.54,6.37,7.38,9.06,11.63c2.7,4.24,5.06,8.86,6.66,13.87c1.66,4.99,2.57,10.34,2.64,15.71
		l0.01,0.25c0-0.15,0,0.49,0,0.5l-0.01,0.42l-0.03,0.84l-0.02,0.84l-0.01,0.42l-0.04,0.54c-0.12,1.44-0.23,2.95-0.45,4.22
		c-0.36,2.66-1.02,5.25-1.75,7.8c-1.59,5.05-3.86,9.77-6.52,14.1c-2.67,4.34-5.76,8.26-9.04,11.89
		c-6.58,7.26-14.03,13.22-21.67,18.49c-3.83,2.62-7.73,5.05-11.66,7.35c-3.94,2.29-7.94,4.37-11.93,6.37
		c-7.99,3.99-16.04,7.49-24.06,10.57c-16.03,6.19-31.87,10.91-47,14.71c-15.14,3.77-29.59,6.58-42.97,8.76
		c-13.38,2.17-25.7,3.68-36.63,4.77c-10.93,1.09-20.48,1.69-28.34,2.13c-7.86,0.47-14.05,0.56-18.26,0.69
		c-4.21,0.06-6.46,0.09-6.46,0.09s2.22-0.37,6.37-1.06c2.08-0.35,4.64-0.78,7.64-1.28c3-0.52,6.45-1.12,10.32-1.79
		c7.73-1.35,17.08-3.13,27.75-5.27c5.33-1.1,11.01-2.24,16.96-3.59c5.96-1.32,12.21-2.73,18.69-4.34
		c12.97-3.16,26.93-6.89,41.47-11.43c14.53-4.52,29.64-9.86,44.76-16.34c7.53-3.28,15.09-6.79,22.47-10.74
		c7.37-3.95,14.59-8.29,21.44-13.11c6.81-4.84,13.17-10.27,18.59-16.25c5.41-5.98,9.65-12.7,11.84-19.72
		c0.5-1.76,0.98-3.52,1.22-5.3c0.17-0.94,0.2-1.67,0.3-2.46l0.03-0.3l0.01-0.42l0.03-0.84l0.03-0.84l0.01-0.42
		c0.01-0.13-0.01,0.37-0.01,0.08l0-0.16c-0.03-3.58-0.6-7.16-1.74-10.65c-2.25-6.99-6.51-13.67-11.87-19.61
		c-5.36-5.95-11.66-11.28-18.31-16.09c-6.66-4.81-13.75-9.04-20.88-12.96c-14.34-7.75-29.05-14.02-43.25-19.34
		c-14.22-5.32-27.98-9.69-40.79-13.39c-12.83-3.69-24.71-6.74-35.3-9.27c-10.59-2.51-19.88-4.61-27.55-6.2
		c-7.69-1.56-13.73-2.79-17.86-3.63C749.29,683.34,747.08,682.91,747.08,682.91"/>
	<path style="clip-path:url(#SVGID_00000160166078916449850060000003142225942061134266_);fill:#0A6999;" d="M558.19,873.21
		c0,0-1.32-0.07-3.8-0.21c-2.48-0.15-6.12-0.35-10.75-0.8c-4.63-0.42-10.24-0.98-16.66-1.88c-3.21-0.42-6.62-0.96-10.22-1.5
		c-3.59-0.6-7.36-1.26-11.28-2.03c-7.84-1.55-16.31-3.47-25.17-5.97c-8.85-2.51-18.11-5.57-27.47-9.46
		c-9.36-3.87-18.83-8.6-27.83-14.75c-4.49-3.08-8.85-6.56-12.83-10.61c-3.97-4.05-7.61-8.7-10.28-14.11l-0.51-1.01l-0.42-1.06
		l-0.83-2.13c-0.51-1.43-0.88-2.95-1.29-4.42c-0.58-3.05-0.96-6.12-0.76-9.27l0.05-0.99c0.02-0.33,0.02-0.63,0.09-1.07l0.36-2.46
		c0.1-0.86,0.33-1.55,0.51-2.3c0.2-0.73,0.36-1.49,0.61-2.21c0.53-1.41,0.97-2.87,1.64-4.2l0.94-2.02l1.08-1.91
		c2.93-5.08,6.66-9.37,10.65-13.09c3.99-3.72,8.24-6.91,12.57-9.71c8.65-5.64,17.55-9.89,26.13-13.37
		c8.58-3.48,16.87-6.18,24.58-8.35c7.71-2.18,14.87-3.79,21.23-5.08c6.34-1.35,11.93-2.2,16.52-2.93c4.6-0.7,8.22-1.12,10.69-1.41
		c2.47-0.27,3.79-0.42,3.79-0.42s-5.1,1.42-14.03,3.89c-4.44,1.28-9.82,2.87-15.95,4.8c-6.12,1.94-12.97,4.25-20.33,7
		c-7.36,2.75-15.23,5.97-23.27,9.82c-8.04,3.84-16.29,8.34-24.05,13.84c-3.86,2.76-7.63,5.75-11,9.1
		c-3.37,3.34-6.36,7.03-8.58,11.01l-0.82,1.5l-0.68,1.54c-0.51,1.01-0.77,2.08-1.16,3.12c-0.18,0.52-0.26,1.06-0.4,1.59
		c-0.12,0.52-0.29,1.08-0.33,1.54c-0.07,0.48-0.15,0.96-0.23,1.43c-0.06,0.2-0.06,0.57-0.07,0.89l-0.05,0.99l-0.05,0.99l-0.01,0.25
		c0-0.08-0.01,0.35,0-0.14l0.01,0.1l0.02,0.4l0.1,1.62c0,0.55,0.12,1.08,0.21,1.62l0.27,1.61c0.32,1.06,0.57,2.13,0.95,3.17
		l0.63,1.56l0.31,0.78l0.39,0.76c1.99,4.1,4.89,7.93,8.27,11.4c3.39,3.46,7.16,6.68,11.21,9.55c4.06,2.85,8.27,5.51,12.58,7.92
		c4.33,2.38,8.7,4.62,13.11,6.64c8.8,4.06,17.61,7.5,26.09,10.46c8.48,2.96,16.63,5.45,24.2,7.61c7.57,2.17,14.58,3.99,20.82,5.52
		c6.25,1.49,11.71,2.78,16.23,3.77c2.26,0.48,4.28,0.93,6.03,1.33c1.76,0.37,3.26,0.69,4.48,0.94
		C556.9,872.92,558.19,873.21,558.19,873.21"/>
	<path style="clip-path:url(#SVGID_00000160166078916449850060000003142225942061134266_);fill:#0A6999;" d="M753.93,867.99
		c0,0,1.28-0.37,3.68-1.05c2.41-0.64,5.92-1.71,10.37-2.98c4.45-1.33,9.84-2.97,15.96-4.97c6.12-2.01,12.97-4.42,20.31-7.28
		c7.35-2.86,15.18-6.22,23.18-10.23c7.97-4.04,16.11-8.77,23.64-14.57c3.74-2.91,7.32-6.1,10.42-9.64
		c3.09-3.54,5.69-7.44,7.41-11.57c0.25-0.51,0.4-1.04,0.58-1.57c0.16-0.52,0.38-1.04,0.51-1.58c0.22-1.07,0.56-2.13,0.65-3.21
		c0.06-0.54,0.19-1.08,0.2-1.62l0.06-1.62l0.02-0.41c0,0.1-0.01-0.37,0.01,0.2l-0.01-0.12l-0.01-0.24l-0.06-0.99l-0.12-1.98
		l-0.29-1.44c-0.11-0.49-0.1-0.93-0.31-1.48l-0.47-1.59l-0.24-0.8l-0.32-0.78c-0.43-1.04-0.81-2.1-1.4-3.1l-0.8-1.52
		c-0.3-0.5-0.63-0.98-0.95-1.48c-2.51-3.94-5.8-7.57-9.46-10.87c-1.81-1.67-3.78-3.2-5.72-4.75l-3.03-2.2
		c-1-0.74-2.08-1.39-3.11-2.09c-8.38-5.5-17.4-9.97-26.31-13.9c-8.95-3.89-17.86-7.16-26.42-10c-8.56-2.85-16.77-5.26-24.41-7.31
		c-7.64-2.07-14.69-3.84-20.98-5.29c-3.14-0.73-6.09-1.38-8.82-1.99c-2.73-0.61-5.24-1.18-7.51-1.63
		c-9.11-1.89-14.32-2.97-14.32-2.97s1.33,0.06,3.82,0.18c2.49,0.13,6.15,0.29,10.8,0.7c4.65,0.38,10.29,0.87,16.74,1.71
		c3.23,0.37,6.65,0.89,10.27,1.39c1.81,0.26,3.65,0.58,5.55,0.89c1.89,0.3,3.83,0.64,5.8,1.01c3.95,0.7,8.04,1.57,12.28,2.46
		c2.11,0.49,4.26,0.99,6.44,1.5c2.18,0.52,4.38,1.11,6.61,1.68c8.92,2.38,18.26,5.27,27.72,8.95c4.72,1.87,9.5,3.87,14.22,6.2
		c2.39,1.11,4.72,2.39,7.1,3.62c1.17,0.64,2.32,1.34,3.5,2.01l1.75,1.02l1.72,1.09c4.62,2.88,9.14,6.1,13.34,9.87
		c4.2,3.76,8.17,8.01,11.38,13.01c0.4,0.63,0.81,1.24,1.18,1.89l1.04,2c0.74,1.3,1.28,2.74,1.85,4.15l0.42,1.07l0.32,1.11l0.63,2.22
		c0.24,0.7,0.33,1.6,0.48,2.4c0.13,0.82,0.27,1.66,0.38,2.46l0.11,1.98l0.06,0.99l0.01,0.25l0,0.13c0.02,0.65,0.01,0.26,0.01,0.44
		l-0.03,0.58l-0.14,2.32c-0.05,0.77-0.21,1.53-0.32,2.3c-0.19,1.54-0.63,3-1,4.49c-0.2,0.73-0.49,1.43-0.73,2.15
		c-0.26,0.7-0.48,1.43-0.82,2.1c-2.37,5.49-5.79,10.21-9.56,14.26c-3.78,4.06-7.91,7.5-12.16,10.51
		c-8.5,6.04-17.35,10.53-25.88,14.25c-8.56,3.66-16.85,6.51-24.56,8.81c-7.72,2.3-14.88,4.01-21.24,5.39
		c-6.35,1.43-11.96,2.34-16.55,3.11c-4.61,0.75-8.24,1.21-10.72,1.52C755.25,867.83,753.93,867.99,753.93,867.99"/>
	<path style="clip-path:url(#SVGID_00000160166078916449850060000003142225942061134266_);fill:#0A4F82;" d="M598.75,834.45
		c0,0-0.67-0.02-1.91-0.08c-1.25-0.06-3.08-0.13-5.41-0.33c-2.33-0.19-5.16-0.43-8.4-0.85c-3.23-0.41-6.89-0.92-10.84-1.69
		c-3.95-0.75-8.23-1.66-12.69-2.92c-4.46-1.24-9.16-2.72-13.87-4.7c-4.71-1.97-9.55-4.27-14.09-7.41c-2.27-1.57-4.48-3.35-6.52-5.4
		c-2.03-2.06-3.9-4.42-5.28-7.2c-0.38-0.67-0.61-1.44-0.91-2.16c-0.26-0.74-0.45-1.52-0.66-2.29c-0.3-1.58-0.49-3.16-0.39-4.8
		c0.03-0.35,0.01-0.61,0.07-1.04l0.19-1.29c0.15-0.85,0.37-1.56,0.58-2.33c0.51-1.47,1.11-2.91,1.9-4.19
		c1.51-2.6,3.42-4.79,5.46-6.66c2.04-1.89,4.21-3.48,6.4-4.91c4.37-2.87,8.9-4.96,13.23-6.7c4.33-1.75,8.52-3.07,12.42-4.13
		c3.89-1.09,7.5-1.86,10.7-2.48c3.2-0.65,6.02-1.04,8.33-1.38c2.32-0.32,4.14-0.51,5.39-0.63c1.24-0.12,1.91-0.18,1.91-0.18
		s-2.56,0.75-7.03,2.05c-4.45,1.34-10.79,3.31-18.17,6.1c-3.68,1.42-7.61,3.08-11.63,5.01c-4.02,1.95-8.11,4.26-11.99,6.98
		c-3.85,2.72-7.46,6.09-9.64,9.99c-0.57,0.97-0.95,1.99-1.29,3c-0.13,0.5-0.28,1.06-0.35,1.51l-0.11,0.67
		c-0.04,0.22-0.04,0.63-0.06,0.93c-0.06,1.01,0.08,2.07,0.27,3.1c0.16,0.51,0.28,1.03,0.46,1.54c0.22,0.5,0.36,1.02,0.65,1.5
		c1.94,4.02,5.62,7.51,9.61,10.35c2.03,1.41,4.12,2.75,6.26,3.97c2.16,1.21,4.34,2.34,6.54,3.35c4.41,2.01,8.8,3.8,13.05,5.31
		c4.25,1.48,8.33,2.78,12.12,3.9c7.59,2.21,14.05,3.77,18.57,4.84C596.15,833.85,598.75,834.45,598.75,834.45"/>
	<path style="clip-path:url(#SVGID_00000160166078916449850060000003142225942061134266_);fill:#0A4F82;" d="M697.13,831.82
		c0,0,2.56-0.77,7.04-2.12c4.46-1.39,10.8-3.42,18.16-6.32c3.67-1.47,7.58-3.21,11.58-5.21c3.98-2.04,8.02-4.46,11.77-7.34
		c1.87-1.45,3.63-3.05,5.16-4.81c1.51-1.76,2.77-3.68,3.62-5.69c0.4-1.01,0.72-2.04,0.85-3.08c0.1-0.52,0.11-1.04,0.13-1.57
		l0.01-0.2c0,0.06,0-0.21,0,0.13l0-0.06l-0.01-0.12l-0.03-0.5l-0.06-0.99c-0.12-0.47-0.16-0.87-0.3-1.38
		c-0.18-0.51-0.26-1.03-0.5-1.54c-0.22-0.5-0.4-1.01-0.69-1.5l-0.4-0.74c-0.14-0.24-0.31-0.48-0.46-0.72
		c-1.23-1.93-2.85-3.73-4.66-5.36c-1.81-1.63-3.8-3.15-5.9-4.5c-4.18-2.73-8.66-5.04-13.12-7c-4.48-1.93-8.93-3.63-13.22-5.08
		c-4.29-1.43-8.4-2.68-12.23-3.75c-3.83-1.05-7.36-1.98-10.51-2.74c-3.15-0.76-5.91-1.41-8.19-1.91c-4.57-1.02-7.18-1.6-7.18-1.6
		s0.67,0.02,1.93,0.06c1.25,0.05,3.09,0.1,5.43,0.28c2.34,0.16,5.19,0.37,8.44,0.77c1.63,0.17,3.36,0.42,5.18,0.65
		c1.82,0.27,3.73,0.56,5.72,0.93c1.99,0.34,4.05,0.76,6.19,1.18c2.14,0.46,4.33,0.99,6.58,1.58c4.5,1.18,9.23,2.57,14,4.45
		c2.38,0.95,4.8,1.94,7.19,3.1c1.21,0.55,2.4,1.19,3.59,1.81c1.18,0.68,2.37,1.32,3.53,2.08c2.34,1.45,4.64,3.08,6.78,5
		c2.14,1.91,4.16,4.08,5.81,6.64c0.2,0.32,0.41,0.64,0.6,0.97l0.53,1.03c0.38,0.67,0.66,1.41,0.94,2.14
		c0.32,0.71,0.48,1.51,0.71,2.27c0.2,0.78,0.32,1.7,0.44,2.54l0.05,1l0.02,0.5l0,0.12l0,0.06c0.01,0.38,0,0.15,0,0.25l-0.01,0.3
		c-0.03,0.8-0.08,1.6-0.23,2.39c-0.23,1.58-0.72,3.09-1.31,4.5c-1.21,2.84-2.98,5.24-4.91,7.3c-1.94,2.06-4.04,3.79-6.19,5.32
		c-4.3,3.08-8.8,5.29-13.12,7.15c-4.32,1.85-8.51,3.23-12.41,4.36c-3.89,1.15-7.51,1.97-10.71,2.63c-3.21,0.69-6.03,1.11-8.35,1.47
		c-2.32,0.35-4.16,0.56-5.41,0.69C697.79,831.76,697.13,831.82,697.13,831.82"/>
	<path style="clip-path:url(#SVGID_00000160166078916449850060000003142225942061134266_);fill:#0A7899;" d="M669.91,560.99
		c-98.66,0-178.65-79.98-178.65-178.65c0-9.27,1.57-19.58,4.42-30.67c-23.53,43.33-40.55,85.19-40.55,115.68
		c0,98.67,79.98,178.65,178.65,178.65c90.18,0,164.75-66.82,176.9-153.66C777.98,534.13,727.09,560.99,669.91,560.99"/>
	<path style="clip-path:url(#SVGID_00000160166078916449850060000003142225942061134266_);fill:#0A8FA6;" d="M810.95,450.49
		c-23.92,11.89-50.88,18.59-79.4,18.59c-98.66,0-178.65-79.98-178.65-178.65c0-12.54,2.88-27,7.91-42.69
		c-22.23,32-45.85,68.46-65.12,103.93c-2.85,11.09-4.42,21.4-4.42,30.67c0,98.66,79.98,178.65,178.65,178.65
		c57.17,0,108.07-26.86,140.77-68.65c1.14-8.17,1.75-16.51,1.75-24.99C812.43,462.06,811.92,456.42,810.95,450.49"/>
	<path style="clip-path:url(#SVGID_00000160166078916449850060000003142225942061134266_);fill:#0AA6B0;" d="M620.91,205.42
		c0-15.63,4.47-34.25,12.01-54.52c-5.57,7.1-37.11,46.45-72.11,96.84c-5.02,15.7-7.9,30.16-7.9,42.69
		c0,98.66,79.98,178.65,178.65,178.65c28.52,0,55.48-6.7,79.4-18.59c-3.21-19.65-11.44-42.56-22.7-66.79
		C694.86,377.87,620.91,300.28,620.91,205.42"/>
	<path style="clip-path:url(#SVGID_00000160166078916449850060000003142225942061134266_);fill:#38C2CC;" d="M633.79,149.75
		c-0.01,0.04-0.32,0.44-0.87,1.14c-7.53,20.27-12.01,38.89-12.01,54.52c0,94.87,73.95,172.45,167.34,178.28
		C739.52,278.78,634.09,148.93,633.79,149.75"/>
	<path style="clip-path:url(#SVGID_00000160166078916449850060000003142225942061134266_);fill:#373535;" d="M1265.8,419.35
		c-2.79,0.3-7.37,2.54-13.74,6.72l-6.13,3.88c-1.4,0.99-2.99,3.69-4.78,8.07l-1.34,2.99c2.19,0.3,3.63,0.8,4.33,1.49
		c0.7,0.7,1.09,2.14,1.19,4.33l-7.62-0.89l-0.9,2.99l-6.12,9.26l-2.09,8.81l-3.43,6.42l-2.39,7.62l-7.77,10.45l-7.92,14.34
		l-3.58,4.04l-9.26,12.84l-2.99,2.69c-2.39,1.99-3.63,3.04-3.73,3.13c-1.49,1-2.79,1.49-3.88,1.49c-3.29,0-5.23-2.44-5.83-7.32
		l-8.66-8.51l-1.49,1.49c-2.49-1.39-4.33-3.63-5.53-6.72l2.09-1.19c-4.29-3.38-7.57-6.32-9.86-8.81c-2.29-2.49-5.28-6.22-8.96-11.2
		c-0.7,0-1.19,0.02-1.49,0.07c-0.3,0.05-0.65,0.12-1.04,0.22c-1.59,0-3.54-1.69-5.83-5.08l2.24-1.64l-1.04-2.99l-2.99-4.93
		l-4.33-7.62c-1.29-2.29-4.03-3.44-8.22-3.44l-6.13,1.04c-1.19-1.39-1.79-2.44-1.79-3.13c0-1.09,0.3-2.44,0.9-4.04l1.19-4.48
		l-4.93-4.04l0.3-5.23l-0.6-2.99l-6.13-7.02v-2.54l-0.6-2.39l2.24-6.72l-1.64-1.79l-2.39,0.3l-2.09-0.6l-1.94,0.3l-7.32,3.88
		l-9.11,4.33c-1.1,0.5-2.09,1.69-2.99,3.58c-0.89,1.89-1.34,3.74-1.34,5.53c0,4.69,3.14,11.01,9.41,18.97
		c2.19-0.4,3.43-0.6,3.73-0.6c1.19,0,2.21,0.37,3.06,1.12c0.84,0.75,1.27,1.62,1.27,2.61c0,1.69-1.44,2.69-4.33,2.99l2.69,3.13
		l4.93,6.72l12.84,13.44l4.04,4.63l2.09-0.89c2.99,1.49,4.88,2.79,5.68,3.88c0.8,1.1,1.24,2.94,1.34,5.53
		c2.19-0.4,3.44-0.6,3.74-0.6c0.99,0,1.96,0.47,2.91,1.42c0.94,0.95,1.42,2.02,1.42,3.21l0.3,8.51l10.61,9.71
		c1.29,1.3,1.94,4.09,1.94,8.36c2.09,0.2,4.04,0.8,5.83,1.79l6.72,8.51l7.32,5.83l1.49,3.44l-1.79,1.19
		c1.29,1.09,2.11,2.07,2.46,2.91c0.35,0.85,0.52,2.31,0.52,4.4h-2.39l-0.3,4.63l0.3,5.83l-0.6,3.29l-2.54,3.43l-0.6,3.59l3.73,0.45
		l0.9,0.89l-0.9,2.39c-1.49,2.19-2.24,3.64-2.24,4.33l0.75,11.2v1.05l-1.04,7.32l-1.79,11.06l-0.6,3.58
		c1.79,2.49,3.73,3.73,5.83,3.73c0.99,0,3.11-0.5,6.35-1.49c3.23-0.99,5.8-1.74,7.69-2.24l3.43-0.89h2.99h3.14
		c0.6-1.49,0.9-2.39,0.9-2.69c0-1.79-1.44-3.74-4.33-5.83v-2.54l3.14-0.89l-0.75-13.74l-2.39-0.3l-0.9-7.92l2.09-1.64l1.94,0.6
		l0.9-14.94c-1.59-0.9-2.69-1.74-3.28-2.54c-0.6-0.8-1.15-2.19-1.64-4.18c1.99-1.79,3.26-3.29,3.81-4.48
		c0.55-1.19,0.92-3.29,1.12-6.28l0.3-5.83l2.39-2.09l3.13-5.53l5.38-7.02l2.24-2.99l-2.24-4.63l3.13-2.09
		c4.68-3.38,7.42-5.97,8.22-7.77l6.12-11.8l2.54-1.94l3.89-7.32l4.03-6.13v-3.88c0-1.09,0.7-2.34,2.09-3.73l3.74-2.39l3.28-4.93
		l2.24-2.24l5.08-13.44l4.93-3.29l6.42-12.25l6.43-8.81c1.99-2.49,3.13-6.28,3.43-11.35C1266.45,419.55,1265.7,419.35,1265.8,419.35
		 M1089,440.59l-1.52-0.76c-7.58,3.79-15.46,5.69-23.64,5.69c-1.69,0-3.84-0.42-6.45-1.26l-6.19,1.26l-9.35-0.25l-5.44,2.27
		l-4.17,0.25l-2.27,1.64l-4.42-1.01c-1.35-1.18-2.68-1.9-3.98-2.15c-1.31-0.25-4.61-0.59-9.92-1.01l-3.16-0.25l-0.25,1.01
		l-2.91-0.25l-6.19-3.41l-14.66-0.76l-7.33-1.77l-9.36,0.51l-11.12-3.67l-5.69-0.51c-2.28,1.94-4.26,2.91-5.94,2.91
		c-1.77,0-3.16-1.22-4.17-3.67h-3.42c-4.72,0-8.38,0.59-11,1.77l-9.35,7.33c-1.43,1.18-2.42,2.3-2.97,3.35
		c-0.55,1.06-0.86,2.85-0.95,5.37l3.67,0.63l3.67,0.51h0.76c1.68,0,3.58-1.22,5.69-3.67l3.03,0.51l18.71-1.01l17.32,1.77l11.37-1.01
		l5.69,2.27l2.65,0.25h2.27l7.08,1.39c0.17,0.5,0.25,1.18,0.25,2.02c0,0.93-0.88,1.9-2.65,2.91l-3.92,7.71l0.51,3.16l1.64,9.23
		l-0.25,3.67l1.52,6.45l-0.25,3.67v0.25c0,1.77,0.93,4.97,2.78,9.61l0.88,2.78c-1.6,4.55-2.4,7.5-2.4,8.85l0.25,0.25l0.51,7.2
		l0.76,10.62l-1.27,8.09l3.16,11.63l-2.4,3.03v2.91l-1.26,10.87l-0.76,14.54l-1.01,9.86l1.01,6.7l-1.01,5.69
		c-0.08,0.25-0.15,0.53-0.19,0.82c-0.04,0.3-0.15,0.7-0.31,1.2l1.52,3.41l1.52-0.51c0.59,0,1.39,0.34,2.4,1.01l1.52-1.77h1.77
		l2.4-0.25l6.7-5.69l2.27-1.14l1.9-1.52l-1.9-21.23c-3.03-1.6-4.55-3.42-4.55-5.44c0-2.44,1.6-4.34,4.8-5.69l-0.25-5.18l-0.25-3.03
		l0.51-3.67l-1.01-4.68l0.51-3.41l-1.26-3.03c1.18-1.26,1.77-2.57,1.77-3.92v-5.43v-6.19l-3.03-3.41c0.17-1.6,0.44-2.74,0.82-3.41
		c0.38-0.67,1.12-1.35,2.21-2.02l-0.76-1.52c-0.76-0.08-1.5-0.25-2.21-0.51c-0.72-0.25-1.24-0.61-1.58-1.07
		c-0.34-0.46-0.72-1.07-1.14-1.83c3.28-2.95,4.93-5.69,4.93-8.22v-5.94l0.51-9.1c-0.25-1.09-1.77-1.85-4.55-2.27
		c0.08-1.94,0.4-3.16,0.95-3.67c0.55-0.51,1.83-0.84,3.85-1.01l-0.76-2.91l0.51-3.92l-0.25-4.55l1.39-5.94v-1.14l-0.25-4.04
		l-0.63-3.16l1.39-5.94l1.77-0.25l4.43,0.76l11.37-0.76l11.88,1.27l17.06,0.51l7.33,1.26h0.25c1.01,0,2.02-0.25,3.03-0.76l4.68-3.03
		l10.11-3.92l3.16-5.43l2.27-1.77L1089,440.59z M906.4,437.18c-1.35-0.34-1.94-0.51-1.77-0.51l-4.17,1.64l-4.42,1.26
		c-1.69,3.12-3.03,4.76-4.04,4.93l-6.57,0.51c-1.6,0-2.87,0.76-3.79,2.27v7.33l-0.25,4.04l1.77,2.66l-0.76,4.67l0.76,11.12
		l0.25,2.53c1.69,1.6,2.53,3.08,2.53,4.42v0.51l-1.52,4.68l1.01,9.35l-1.01,2.02l2.4,2.66c0,1.35-0.55,2.53-1.64,3.54l0.25,2.66
		l0.5,2.53c0.17,0.34,0.25,0.88,0.25,1.64l-0.25,12.13v3.67l1.9,2.02c-1.26,2.45-1.9,4.76-1.9,6.95c0,2.19,0.15,3.69,0.44,4.49
		c0.3,0.8,1.2,1.92,2.72,3.35l-2.27,3.54l0.25,4.93l-0.88,9.35l-0.25,5.69l-0.5,4.17l0.76-0.76l0.63,0.51l3.03-0.25
		c0.84,1.43,1.27,2.53,1.27,3.29l-0.25,1.14l-5.69,1.01v4.42v3.79l-3.29,11.12v2.91c0,1.69-0.8,4-2.4,6.95l2.15,3.16l4.55-1.01
		l0.38-1.39l1.52,0.25c2.86,0,8.13-3.46,15.8-10.37l-0.25-3.29l-0.76-4.93l0.5-11.88l-1.14-7.08l0.88-2.02l-2.4-1.26l2.4-7.08v-2.02
		l-0.25-5.43l-0.38-2.78v-4.68c-1.35-0.84-2.02-1.89-2.02-3.16v-1.01l1.77-5.94v-7.58l0.63-6.95c0-0.59-0.38-1.81-1.14-3.67
		l-1.27-3.29l2.65-4.42v-3.41l0.25-3.79l-1.89-2.91c1.26-1.26,2.06-2.34,2.4-3.22c0.34-0.89,0.51-2.3,0.51-4.24l-0.51-10.37
		l0.25-3.92l-1.9-0.76v-2.28c1.94-3.96,2.91-6.82,2.91-8.59l-1.77-13.27l2.53-4.3l0.76-4.17l0.51-3.92
		C907.16,440.33,906.91,439.03,906.4,437.18 M857.29,488.49l0.5-6.19l-2.02-8.34v-0.25l1.01-5.18c0.51-1.52,0.76-3.33,0.76-5.43
		l-0.25-10.62l0.25-4.93l-0.76-2.78l0.51-3.67c0-1.43-0.51-2.99-1.52-4.68c-2.95,1.27-4.87,2.24-5.75,2.91
		c-0.88,0.68-1.92,1.9-3.09,3.67c-7.25,1.86-10.87,4.34-10.87,7.46c0,0.67,0.17,1.69,0.51,3.03c1.94,0,3.22,0.59,3.85,1.77
		c0.63,1.18,1.16,3.62,1.58,7.33l0.51,4.42l3.92,2.91c-0.17,1.69-0.44,2.8-0.82,3.35c-0.38,0.55-1.16,0.86-2.34,0.94l0.63,32.86
		c2.02,0.85,3.03,1.81,3.03,2.91v0.25l-1.01,5.94l1.52,3.91l-2.03,3.92l-0.76,18.08l-1.64,5.18c-0.17,0.34-0.25,0.93-0.25,1.77
		c0,1.43,0.88,3.08,2.65,4.93l-2.65,6.19l0.25,15.29l-1.27,2.91l-3.67-3.16l-2.78-1.77l-5.43-8.34c-0.17-0.25-2.06-1.18-5.69-2.78
		l-2.91-1.89c-1.18-2.11-1.77-4.09-1.77-5.94l0.25-1.77l-1.77-1.77c-0.25-2.19-0.72-3.79-1.39-4.8c-0.67-1.01-2.19-2.36-4.55-4.04
		l-3.41-2.4l1.77-0.25l-5.94-8.22c-2.02-0.34-3.37-0.78-4.05-1.33c-0.67-0.55-1.22-1.67-1.64-3.35l2.4-1.26l-11.37-12.13l-1.39-4.17
		l-3.79-3.67l-5.18-7.46l-2.15-2.65l0.76-2.27l-5.18-2.91c0.76-0.84,1.14-1.77,1.14-2.78c0-0.42-0.72-1.9-2.15-4.42l-6.45-10.87
		c-3.29-5.56-5.94-9.35-7.96-11.37l0.76-0.76l-2.15-3.92l-2.27-2.91l-5.69-11.12c-1.01-2.36-2.49-3.54-4.42-3.54
		c-0.68,0-1.18,0.17-1.52,0.51l-5.94,6.95l-2.15,1.27c-0.51,1.43-1.18,2.53-2.03,3.28c-0.84,0.76-2.32,1.73-4.42,2.91l-3.16,1.9
		l-1.01,2.78l5.69,7.08c0.93,1.18,1.39,4.34,1.39,9.48v2.91c-0.76,1.85-1.14,3.08-1.14,3.67l1.14,8.72l0.25,3.67l1.26,1.77
		c-1.01,3.71-1.52,6.32-1.52,7.84c0,1.43,0.76,2.78,2.27,4.04c-0.51,1.6-0.76,2.82-0.76,3.67l1.77,4.17l0.25,3.03
		c-2.36,1.6-3.54,3.24-3.54,4.93l0.51,5.18l-0.88,7.33l1.64,5.43c0.08,0.09,0.15,0.17,0.19,0.25c0.04,0.09,0.06,0.17,0.06,0.25
		l-0.76,7.21l0.51,2.65l-0.51,2.78l2.78,3.41v1.26c-1.85,0.42-3.16,1.27-3.92,2.53l0.63,14.54l-1.9,6.7c0,0.17-0.02,0.32-0.06,0.44
		c-0.04,0.12-0.1,0.27-0.19,0.44c0,0.34,0.42,1.77,1.27,4.3l-1.52,3.67l-0.76,2.91l2.91,2.53l-2.15,3.16l-2.78,3.54
		c-0.51,0.76-0.89,2.32-1.14,4.68l-0.25,3.16l2.15-0.5l2.78,0.25h0.25c1.01,0,2.32-0.97,3.92-2.91l2.91,0.25l1.52-2.27
		c4.13-5.98,6.19-9.52,6.19-10.62c0-1.09-0.76-2.06-2.27-2.91l-0.25-1.52l1.52-7.2c0.17-0.34,0.25-0.55,0.25-0.63v-0.25l-1.52-10.87
		v-37.16l-1.14-2.91l-1.01-5.18c2.1-2.78,3.16-4.84,3.16-6.19v-0.19c0-0.04-0.09-0.15-0.25-0.32l-2.15-7.33l-0.25-3.03l2.15-1.01
		l0.76-3.67l-0.51-10.87l1.01-5.43l-0.76-2.02l3.03-1.14l-2.78-5.94l2.53-1.27c0.93,0,2.06,0.68,3.41,2.02l2.78-1.01
		c1.6,0,2.4,1.06,2.4,3.16c0,1.01-0.34,2.57-1.01,4.68c5.22,2.7,10.74,8.97,16.56,18.83l2.02,1.26l0.76-1.01l4.17,4.68l2.02,6.7
		l7.33,12.01l1.52,3.03c3.96,0,6.66,1.73,8.09,5.18l2.27,6.45l3.67,4.42l6.95,12.39c0.51,0.76,2.82,2.87,6.95,6.32
		c2.95,2.27,4.42,4.42,4.42,6.45l-0.51,2.78l2.03,2.65l5.69,9.86l7.58,9.48l5.94,9.1l1.01,2.91l4.93-2.91l1.77-2.78
		c3.46-5.39,5.83-9.58,7.14-12.58c1.3-2.99,1.96-6.17,1.96-9.54c0-1.6-0.34-3.92-1.01-6.95c-2.45-1.6-3.67-3.24-3.67-4.93
		c0-0.92,0.71-1.94,2.15-3.03l0.76,1.26l0.25-3.41l-0.51-11.88l0.76-4.42l-0.76-6.7l0.76-11.63l-0.51-8.34l1.52-5.94l-0.51-8.22
		l0.51-10.37c0-0.51-0.59-2.06-1.77-4.67c1.52-0.76,2.45-1.56,2.78-2.4L857.29,488.49z M710.72,592.27c-0.34,0-1.27,0.19-2.78,0.57
		c-1.52,0.38-2.49,0.61-2.91,0.7l-14.79,2.66l-2.53,1.01l-11.88,0.25l-2.91,0.51l0.76,1.9l-2.53-0.88l-7.33-0.25l-4.3-0.76
		l-15.04,1.01l-6.19-1.27l-7.08,0.76l-11.63-2.27h-0.51c-0.76,0-1.98,0.76-3.67,2.27c-2.45-1.35-4.34-2.02-5.69-2.02l-5.69,0.76
		l-17.07-5.94l-3.92-0.76l-1.52-24.14l-3.67-6.45l3.41-7.21c0.34-0.67,0.5-1.26,0.5-1.77c0-1.77-1.09-4.04-3.28-6.82
		c1.85-2.36,2.78-4.09,2.78-5.18v-0.25l-1.01-11.63l0.51-4.17c-0.25-1.09-1.01-2.82-2.27-5.18l1.77-5.43l-1.77-2.27l-1.14-2.03
		l2.15-6.82l-0.5-6.7l1.01-1.77l13.91,1.01l4.67-2.91l5.69,1.64l8.09-2.91l16.56,1.77l5.69-2.27c0.34-0.17,0.84-0.25,1.52-0.25
		c1.18,0,2.23,0.85,3.16,2.53l3.92,0.38l21.23-1.39l5.94,1.39l10.87-0.38l8.47,1.14h0.51c0.84,0,1.73-0.38,2.65-1.14l7.71-6.7
		l3.41-2.27v-3.92l-2.91,0.25l-2.78-0.25c-1.43,0-2.99,0.68-4.68,2.02l-2.65,1.64c-1.18-0.93-2.36-1.56-3.54-1.9l-10.37,1.39
		l-9.86,0.25l-5.43,1.27l-2.27,0.51l-9.61-1.77c-1.27,0.68-2.42,1.14-3.48,1.39c-1.06,0.25-2.34,0.38-3.85,0.38h-7.21l-7.96-0.25
		l-13.52-0.76h-0.25c-1.1,0-2.82,0.42-5.18,1.27l-3.92,0.76c-2.27-1.68-4-2.53-5.18-2.53l-17.32-1.64l-2.53-0.76l-0.25-2.78
		l-0.5-3.67l1.01-9.86l-0.51-6.7v-1.01l-1.01-1.01l2.78-4.17l17.31,1.52l3.67-1.52l2.53-0.76l0.63,2.27l3.79,0.25
		c4.8,0,8.09-1.01,9.86-3.03c2.27,0,4.59,0.76,6.95,2.28l2.65,0.25l11.63,1.27l5.69-0.76l6.7,0.51h1.39c2.86,0,6.49-1.01,10.87-3.03
		c2.02-1.09,3.24-1.94,3.67-2.53c0.42-0.59,0.72-1.64,0.88-3.16c2.11-1.01,3.48-1.91,4.11-2.72c0.63-0.8,1.16-2.17,1.58-4.11
		l-2.53-0.51c-0.76,0-3,0.72-6.7,2.15c-2.7,0.93-6.95,1.69-12.77,2.27v1.52l-3.79,0.88l-6.57-1.9l-16.81,1.01l-19.09-2.02
		c-0.17-0.17-0.51-0.25-1.01-0.25c-1.09,0-3.2,0.59-6.32,1.77l-4.8-1.52l-8.6-0.76l-18.58-3.16c-0.17-0.17-0.3-0.25-0.38-0.25h-0.25
		c-2.19,0-5.35,0.97-9.48,2.91l-2.4,0.76c-2.19,0.85-3.58,1.6-4.17,2.27l-1.27,2.66l4.93,2.02c0.76,0.25,1.28,1.06,1.58,2.4
		c0.3,1.35,0.57,4.09,0.82,8.22l2.53-0.76l2.02,0.76c-0.34,1.01-0.51,1.73-0.51,2.15c0,0.76,0.63,1.6,1.9,2.53l2.02,1.77l-6.95-1.77
		l-1.01,1.52l-0.25,3.16l0.25,1.26l1.52,2.66l0.51,8.22l1.01,2.65l2.66,0.76l-0.51,2.53l-1.14,6.19l1.14,16.05l-0.63,9.35l0.63,2.15
		c1.68,1.26,2.86,2.32,3.54,3.16c0.67,0.85,1.47,2.27,2.4,4.3l-5.18,0.25l0.76,2.91l0.25,2.78l-0.51,7.46l0.51,29.32l-0.76,3.67
		v9.48l-1.39,6.19l-0.51,6.82l-3.03,7.21l-1.26,2.91c5.56,2.02,8.72,3.03,9.48,3.03l22.25-0.76l7.33,1.52l6.45-1.77l1.27-0.25
		c1.52,0,3.67,0.92,6.45,2.78l3.67-1.77l24.9-0.25l4.42-2.27l1.26-0.25h1.52l1.01,2.53l3.16-0.51l4.67,0.25
		c0.67,0,3.58-0.5,8.72-1.52l1.39,2.02l4.05,0.51l14.28-0.51l0.76,0.25l6.19,1.9h0.25l5.43-2.66l4.68,0.51l1.01-1.26l3.42-2.4
		l2.53-5.43c0.42-0.51,1.14-0.76,2.15-0.76l2.78,0.25l1.64-5.43C712.27,592.52,711.22,592.27,710.72,592.27 M490.45,468.01
		l-2.4,6.45l-0.5,4.17l-6.95,7.58l-6.19,10.24l-8.6,3.67l-4.17,2.91l-11.37,4.04l-2.78,1.39l-2.91-1.14l-8.22,3.16l-4.17,0.51
		l-2.27,0.51l-1.64-1.52l-11.38,0.25l0.25-1.01c-3.37-1.43-5.18-3.16-5.43-5.18l1.01-5.94v-3.67l0.5-4.17l-1.01-2.78
		c-3.12-0.76-4.68-2.15-4.68-4.17c0-1.35,1.22-2.99,3.67-4.93v-3.41l-0.25-5.43l-0.25-8.22c0-4.47,0.34-7.4,1.01-8.79
		c0.67-1.39,1.9-2.09,3.67-2.09l2.02-2.4h2.66l17.57-2.02l2.02,0.25l1.64-1.26l17.82,1.52l1.77-3.03l3.41,0.51l1.52,3.54h2.15
		l1.26,0.25l5.94,2.15l4.17,0.25l4.42,3.29l4.04,3.16c2.11,1.52,3.16,4.13,3.16,7.84L490.45,468.01z M541.9,600.1h-0.25l-7.96,1.26
		c-0.09-0.08-0.19-0.15-0.32-0.19c-0.13-0.04-0.36-0.06-0.7-0.06l-2.66-2.65l-12.89-7.96l-4.42-4.17l-2.4-1.77l-5.18-1.64
		c-0.85-1.09-1.27-2.44-1.27-4.05v-1.64l-2.02-2.28l-3.92-4.42l-5.69-6.19c-2.19-1.6-3.48-2.59-3.85-2.97
		c-0.38-0.38-0.91-1.37-1.58-2.97l-5.43-2.91l0.76-3.28l-5.43-6.45l-4.93-4.42l-7.2-8.09l-2.66-3.29l-2.53,0.25
		c-1.43,0-2.27-1.3-2.53-3.92l1.27-1.01l-2.66-2.91c-1.52,0.17-2.78,0.8-3.79,1.89H449c-0.34-0.84-0.51-1.3-0.51-1.39
		c0-0.76,0.84-1.85,2.53-3.28l0.88-2.15c-1.27-1.09-1.9-2.02-1.9-2.78c0-0.34,0.08-0.67,0.25-1.01c0.51-0.34,1.05-0.51,1.64-0.51
		c0.59,0,1.26,0.25,2.02,0.76l3.67-2.91h1.01l1.77-0.25l6.19-2.02h3.16l3.92-1.39l3.03-1.26c1.68-0.84,2.91-2.4,3.67-4.68l2.53-0.25
		l4.17-2.78l4.17-1.52l5.69-6.57l2.78-1.52l1.64-2.02l-1.01-2.15c0-0.67,0.17-1.26,0.51-1.77c2.36,0,3.7-0.17,4.04-0.51l1.64-2.15
		l2.78-2.78l1.26-2.91c-1.26-0.76-2.02-2.19-2.27-4.3l4.42,0.76c1.52-4.21,2.27-7.84,2.27-10.87c0-3.37-0.74-6.26-2.21-8.66
		c-1.48-2.4-3.65-4.02-6.51-4.87l-7.84-2.27l-6.95-3.67l-8.59-0.51l-13.4-2.27h-17.82l-8.85-0.25l-3.16,0.25
		c-0.17-0.08-0.31-0.15-0.44-0.19c-0.12-0.04-0.31-0.06-0.57-0.06l-2.78-1.64l-12.77,2.4h-0.25c-0.85,0-2.11-0.8-3.79-2.4
		l-3.92,0.51l-9.1,0.51c-5.31,0.25-10.66,1.48-16.05,3.67l-1.77,0.76l-2.65,0.76l-0.51,3.41l4.93,2.91c1.6,2.36,2.4,4.76,2.4,7.2
		l-0.88,9.36l0.88,0.76v4.93v0.76c0,2.7,0.19,4.76,0.57,6.19c0.38,1.43,1.12,3.16,2.21,5.18l-0.76,4.93l0.51,9.86l0.25,5.69
		c1.09,0,2.23,0.76,3.41,2.27v4.67c-2.86,0.93-4.42,1.98-4.67,3.16l1.52,3.28l-0.76,5.94l1.01,12.26l-1.01,9.73l-0.25,5.69
		l0.25,4.17l1.27,1.52l-0.76,4.93c0,1.85,0.97,3.49,2.91,4.93l1.77,1.64c0,2.02-0.21,3.39-0.63,4.11c-0.42,0.72-1.18,1.07-2.28,1.07
		l-2.02-0.25l-1.26,2.28l0.76,9.35l-1.52,4.3l-0.25,8.6c0,2.7-0.46,4.85-1.39,6.44c-2.02,4.47-3.03,7-3.03,7.58
		c0,1.01,0.84,1.52,2.53,1.52c1.27,0,2.06-0.17,2.4-0.51l6.7-5.43c1.18-1.18,2.49-1.77,3.92-1.77h4.3l2.15-1.89l2.53-2.27
		c1.09-1.01,1.64-2.32,1.64-3.92v-0.76l-2.65-20.48l-0.25-4.17l0.76-6.7l0.25-2.53l-1.77-3.16l1.01-3.16l-0.51-3.54l0.51-5.69
		l0.51-7.33l1.01-3.03c0.17-0.34,0.25-0.97,0.25-1.9c0-1.01-0.59-1.85-1.77-2.53l0.25-5.94l1.26-3.16l0.89-3.28l2.53,0.76l8.09,6.19
		l3.29,1.27l3.67,3.41l4.42,2.27l3.54,5.43l7.33,5.44l1.77,2.15l6.19,1.27c1.43,0.34,2.15,1.48,2.15,3.41
		c0,0.76-0.21,1.69-0.63,2.78l2.65,2.65l4.42,5.18l3.54,2.02l2.4,2.78l4.17,3.41l1.77,2.02l2.03,0.63l2.91,4.05l4.93,1.9l4.17,6.19
		l4.8,1.77l1.14,7.2c0,0.09,1.09,1.48,3.29,4.17l1.64,1.9l3.03,2.53l6.45,3.92c0.5,0.17,2.15,2.32,4.93,6.45h4.42
		c2.86,0,5.56-0.34,8.09-1.01l8.97-3.16l4.68-1.26l3.16-2.28l2.78-1.89C544.72,601.03,543.08,600.1,541.9,600.1 M372.32,592.27
		c-0.34,0-1.26,0.19-2.78,0.57c-1.52,0.38-2.49,0.61-2.91,0.7l-14.79,2.66l-2.53,1.01l-11.88,0.25l-2.91,0.51l0.76,1.9l-2.53-0.88
		l-7.33-0.25l-4.3-0.76l-15.04,1.01l-6.19-1.27l-7.08,0.76l-11.63-2.27h-0.51c-0.76,0-1.98,0.76-3.67,2.27
		c-2.44-1.35-4.34-2.02-5.69-2.02l-5.69,0.76l-17.07-5.94l-3.92-0.76l-1.52-24.14l-3.67-6.45l3.41-7.21
		c0.34-0.67,0.51-1.26,0.51-1.77c0-1.77-1.1-4.04-3.29-6.82c1.85-2.36,2.78-4.09,2.78-5.18v-0.25l-1.01-11.63l0.51-4.17
		c-0.25-1.09-1.01-2.82-2.27-5.18l1.77-5.43l-1.77-2.27l-1.14-2.03l2.15-6.82l-0.51-6.7l1.01-1.77l13.9,1.01l4.68-2.91l5.69,1.64
		l8.09-2.91l16.56,1.77l5.69-2.27c0.34-0.17,0.84-0.25,1.52-0.25c1.18,0,2.23,0.85,3.16,2.53l3.92,0.38l21.24-1.39l5.94,1.39
		l10.87-0.38l8.47,1.14h0.51c0.84,0,1.73-0.38,2.66-1.14l7.71-6.7l3.41-2.27v-3.92l-2.91,0.25l-2.78-0.25
		c-1.43,0-2.99,0.68-4.68,2.02l-2.65,1.64c-1.18-0.93-2.36-1.56-3.54-1.9l-10.36,1.39l-9.86,0.25l-5.44,1.27l-2.27,0.51l-9.61-1.77
		c-1.27,0.68-2.42,1.14-3.48,1.39c-1.06,0.25-2.34,0.38-3.85,0.38h-7.21l-7.96-0.25l-13.52-0.76h-0.25c-1.09,0-2.82,0.42-5.18,1.27
		l-3.92,0.76c-2.27-1.68-4-2.53-5.18-2.53l-17.31-1.64l-2.53-0.76l-0.25-2.78l-0.51-3.67l1.01-9.86l-0.51-6.7v-1.01l-1.01-1.01
		l2.78-4.17l17.32,1.52l3.67-1.52l2.53-0.76l0.63,2.27l3.79,0.25c4.8,0,8.09-1.01,9.86-3.03c2.28,0,4.59,0.76,6.95,2.28l2.66,0.25
		l11.63,1.27l5.69-0.76l6.7,0.51h1.39c2.86,0,6.49-1.01,10.87-3.03c2.02-1.09,3.24-1.94,3.67-2.53c0.42-0.59,0.71-1.64,0.88-3.16
		c2.1-1.01,3.48-1.91,4.11-2.72c0.63-0.8,1.16-2.17,1.58-4.11l-2.53-0.51c-0.76,0-2.99,0.72-6.7,2.15
		c-2.7,0.93-6.95,1.69-12.76,2.27v1.52l-3.79,0.88l-6.57-1.9l-16.81,1.01l-19.09-2.02c-0.17-0.17-0.5-0.25-1.01-0.25
		c-1.1,0-3.21,0.59-6.32,1.77l-4.8-1.52l-8.59-0.76l-18.58-3.16c-0.17-0.17-0.3-0.25-0.38-0.25h-0.25c-2.19,0-5.35,0.97-9.48,2.91
		l-2.4,0.76c-2.19,0.85-3.58,1.6-4.17,2.27l-1.26,2.66l4.93,2.02c0.76,0.25,1.28,1.06,1.58,2.4c0.3,1.35,0.57,4.09,0.82,8.22
		l2.53-0.76l2.02,0.76c-0.34,1.01-0.51,1.73-0.51,2.15c0,0.76,0.63,1.6,1.9,2.53l2.02,1.77l-6.95-1.77l-1.01,1.52l-0.25,3.16
		l0.25,1.26l1.52,2.66l0.51,8.22l1.01,2.65l2.65,0.76l-0.51,2.53l-1.14,6.19l1.14,16.05l-0.63,9.35l0.63,2.15
		c1.69,1.26,2.86,2.32,3.54,3.16c0.67,0.85,1.47,2.27,2.4,4.3l-5.18,0.25l0.76,2.91l0.25,2.78l-0.51,7.46l0.51,29.32l-0.76,3.67
		v9.48l-1.39,6.19l-0.51,6.82l-3.03,7.21l-1.26,2.91c5.56,2.02,8.72,3.03,9.48,3.03l22.25-0.76l7.33,1.52l6.45-1.77l1.26-0.25
		c1.52,0,3.67,0.92,6.45,2.78l3.67-1.77l24.9-0.25l4.42-2.27l1.27-0.25h1.52l1.01,2.53l3.16-0.51l4.68,0.25
		c0.67,0,3.58-0.5,8.72-1.52l1.39,2.02l4.04,0.51l14.28-0.51l0.76,0.25l6.19,1.9h0.25l5.44-2.66l4.67,0.51l1.01-1.26l3.41-2.4
		l2.53-5.43c0.42-0.51,1.14-0.76,2.15-0.76l2.78,0.25l1.64-5.43C373.88,592.52,372.83,592.27,372.32,592.27 M195.28,534.67
		l-0.6-4.03l-2.39-2.99c-5.58-6.97-9.06-10.46-10.46-10.46h-0.3c-0.4,0.1-0.92,0.17-1.57,0.22c-0.65,0.05-1.04,0.07-1.19,0.07h-0.37
		l-7.62-6.72c-2.89-2.49-5.93-3.73-9.11-3.73l-5.83,0.3l-7.92-0.6l-6.72,4.33c-0.2,0-0.37,0.02-0.52,0.07
		c-0.15,0.05-0.32,0.12-0.52,0.22c-1.89,0-3.19-2.34-3.88-7.02l-4.04-0.89l-7.92-1.79c-0.4-0.2-1.1-0.3-2.09-0.3l-5.23,0.6
		l-3.73,0.6l-0.6-1.94l-9.11-0.89l-10.46,0.89l-3.29-2.99l-12.25-5.53l-5.83-4.93l-5.53-0.9l-3.14-1.19l-1.49-3.44l5.83-2.98
		c-0.99-2.29-1.49-3.93-1.49-4.93c0-1.19,0.2-2.29,0.6-3.29l-4.03-2.24l1.19-3.59l5.83-4.03l6.42-11.35l3.44-3.88l7.02-5.53
		l10.45-5.23l14.64-7.62l8.22-0.3l7.02-0.3l12.25,2.39l4.33,0.6l7.92,5.83l3.14,1.79c5.58-1.49,9.56-3.08,11.95-4.78l3.89-3.43
		c0.1-0.1,1.14-0.5,3.13-1.19c0.2-0.6,0.3-1.29,0.3-2.09c0-1.99-2.54-3.63-7.62-4.93l-7.47-1.79l-4.18-1.64l-6.72,0.3l-15.09-1.79
		l-4.48,1.79l-9.26,1.04l-3.88,0.6l-3.74,1.19l-15.98,5.23l-11.5,5.83l-7.02,4.18l-16.28,12.25l-2.69,2.09
		c0,4.08-1.14,6.97-3.43,8.66l-4.93,3.58l-1.79,4.63l-1.79,3.44l-1.94,6.12v1.49l0.6,4.93l0.45,4.78l2.99,3.44l-1.19,0.3
		c1.39,4.58,2.61,7.64,3.66,9.18c1.05,1.55,3.36,3.66,6.95,6.35c1.79-0.4,2.64-0.6,2.54-0.6l5.23,2.24l-0.3,3.28
		c2.09,1.49,4.65,2.72,7.69,3.66c3.03,0.94,7.4,1.96,13.07,3.06l8.51,1.79l3.43,0.75l3.59-4.63l4.63,5.53l20.47,0.9l0.89-1.49
		l3.14-1.64l4.33,2.54l2.99,3.29l13.44,5.23l11.06,6.72l4.33,0.3l1.2,3.43l2.99,8.22l0.6,8.81h-1.49l-4.63,13.9l-2.39,2.69l0.3,3.73
		l0.6,2.99c0,2.49-1.94,3.73-5.82,3.73c-0.8,3.29-1.6,5.63-2.39,7.02l-5.23,5.53l-4.33,5.82c-1.49,1.99-4.03,3.59-7.62,4.78
		l-6.42,2.24l-5.53,1.2l-3.29-1.2l-5.83,2.99l-18.67-1.19l-2.09,0.3c-0.3,1.99-1.14,2.99-2.54,2.99c-0.6,0-2.64-1.09-6.13-3.29
		l-20.47-4.33l-10.15-4.48l-10.01-2.84l-2.54-3.58l-2.99-1.94l-3.44,0.6c-0.5-2.09-1.04-3.48-1.64-4.18
		c-0.6-0.7-1.94-1.54-4.03-2.54l-2.24-11.2c-3.49,0.5-6.62,2.39-9.41,5.68c-2.19,2.39-4.08,5.05-5.68,7.99
		c-1.59,2.94-2.39,5.4-2.39,7.4c0,0.99,1.74,2.74,5.23,5.23l8.36,5.08l7.92,1.05l11.65,8.51l4.18,0.6l4.33,0.6l-1.79-1.49l4.18-0.9
		l9.86,5.53l17.77,1.19l4.78,1.19h13.59l7.02,0.3c3.79,0,7.12-0.8,10.01-2.39c1.69,0.6,2.74,0.9,3.14,0.9c1.49,0,3.63-0.6,6.43-1.79
		l11.65-3.73l23.45-15.24l3.14-1.64l5.82-5.53l5.83-6.12l2.69-4.48l7.92-10.46c0.8-1.19,1.19-3.83,1.19-7.92
		c0-2.49-1.1-4.33-3.29-5.53l-0.6-4.03l2.09-0.9l6.13,0.3c0.99-3.29,1.49-6.13,1.49-8.51L195.28,534.67z"/>
	
		<path style="clip-path:url(#SVGID_00000160166078916449850060000003142225942061134266_);fill:none;stroke:#FFFFFF;stroke-width:0.75;stroke-miterlimit:4.4;" d="
		M1265.8,419.35c-2.79,0.3-7.37,2.54-13.74,6.72l-6.13,3.88c-1.4,0.99-2.99,3.69-4.78,8.07l-1.34,2.99c2.19,0.3,3.63,0.8,4.33,1.49
		c0.7,0.7,1.09,2.14,1.19,4.33l-7.62-0.89l-0.9,2.99l-6.12,9.26l-2.09,8.81l-3.43,6.42l-2.39,7.62l-7.77,10.45l-7.92,14.34
		l-3.58,4.04l-9.26,12.84l-2.99,2.69c-2.39,1.99-3.63,3.04-3.73,3.13c-1.49,1-2.79,1.49-3.88,1.49c-3.29,0-5.23-2.44-5.83-7.32
		l-8.66-8.51l-1.49,1.49c-2.49-1.39-4.33-3.63-5.53-6.72l2.09-1.19c-4.29-3.38-7.57-6.32-9.86-8.81c-2.29-2.49-5.28-6.22-8.96-11.2
		c-0.7,0-1.19,0.02-1.49,0.07c-0.3,0.05-0.65,0.12-1.04,0.22c-1.59,0-3.54-1.69-5.83-5.08l2.24-1.64l-1.04-2.99l-2.99-4.93
		l-4.33-7.62c-1.29-2.29-4.03-3.44-8.22-3.44l-6.13,1.04c-1.19-1.39-1.79-2.44-1.79-3.13c0-1.09,0.3-2.44,0.9-4.04l1.19-4.48
		l-4.93-4.04l0.3-5.23l-0.6-2.99l-6.13-7.02v-2.54l-0.6-2.39l2.24-6.72l-1.64-1.79l-2.39,0.3l-2.09-0.6l-1.94,0.3l-7.32,3.88
		l-9.11,4.33c-1.1,0.5-2.09,1.69-2.99,3.58c-0.89,1.89-1.34,3.74-1.34,5.53c0,4.69,3.14,11.01,9.41,18.97
		c2.19-0.4,3.43-0.6,3.73-0.6c1.19,0,2.21,0.37,3.06,1.12c0.84,0.75,1.27,1.62,1.27,2.61c0,1.69-1.44,2.69-4.33,2.99l2.69,3.13
		l4.93,6.72l12.84,13.44l4.04,4.63l2.09-0.89c2.99,1.49,4.88,2.79,5.68,3.88c0.8,1.1,1.24,2.94,1.34,5.53
		c2.19-0.4,3.44-0.6,3.74-0.6c0.99,0,1.96,0.47,2.91,1.42c0.94,0.95,1.42,2.02,1.42,3.21l0.3,8.51l10.61,9.71
		c1.29,1.3,1.94,4.09,1.94,8.36c2.09,0.2,4.04,0.8,5.83,1.79l6.72,8.51l7.32,5.83l1.49,3.44l-1.79,1.19
		c1.29,1.09,2.11,2.07,2.46,2.91c0.35,0.85,0.52,2.31,0.52,4.4h-2.39l-0.3,4.63l0.3,5.83l-0.6,3.29l-2.54,3.43l-0.6,3.59l3.73,0.45
		l0.9,0.89l-0.9,2.39c-1.49,2.19-2.24,3.64-2.24,4.33l0.75,11.2v1.05l-1.04,7.32l-1.79,11.06l-0.6,3.58
		c1.79,2.49,3.73,3.73,5.83,3.73c0.99,0,3.11-0.5,6.35-1.49c3.23-0.99,5.8-1.74,7.69-2.24l3.43-0.89h2.99h3.14
		c0.6-1.49,0.9-2.39,0.9-2.69c0-1.79-1.44-3.74-4.33-5.83v-2.54l3.14-0.89l-0.75-13.74l-2.39-0.3l-0.9-7.92l2.09-1.64l1.94,0.6
		l0.9-14.94c-1.59-0.9-2.69-1.74-3.28-2.54c-0.6-0.8-1.15-2.19-1.64-4.18c1.99-1.79,3.26-3.29,3.81-4.48
		c0.55-1.19,0.92-3.29,1.12-6.28l0.3-5.83l2.39-2.09l3.13-5.53l5.38-7.02l2.24-2.99l-2.24-4.63l3.13-2.09
		c4.68-3.38,7.42-5.97,8.22-7.77l6.12-11.8l2.54-1.94l3.89-7.32l4.03-6.13v-3.88c0-1.09,0.7-2.34,2.09-3.73l3.74-2.39l3.28-4.93
		l2.24-2.24l5.08-13.44l4.93-3.29l6.42-12.25l6.43-8.81c1.99-2.49,3.13-6.28,3.43-11.35C1266.45,419.55,1265.7,419.35,1265.8,419.35
		z M1089,440.59l-1.52-0.76c-7.58,3.79-15.46,5.69-23.64,5.69c-1.69,0-3.84-0.42-6.45-1.26l-6.19,1.26l-9.35-0.25l-5.44,2.27
		l-4.17,0.25l-2.27,1.64l-4.42-1.01c-1.35-1.18-2.68-1.9-3.98-2.15c-1.31-0.25-4.61-0.59-9.92-1.01l-3.16-0.25l-0.25,1.01
		l-2.91-0.25l-6.19-3.41l-14.66-0.76l-7.33-1.77l-9.36,0.51l-11.12-3.67l-5.69-0.51c-2.28,1.94-4.26,2.91-5.94,2.91
		c-1.77,0-3.16-1.22-4.17-3.67h-3.42c-4.72,0-8.38,0.59-11,1.77l-9.35,7.33c-1.43,1.18-2.42,2.3-2.97,3.35
		c-0.55,1.06-0.86,2.85-0.95,5.37l3.67,0.63l3.67,0.51h0.76c1.68,0,3.58-1.22,5.69-3.67l3.03,0.51l18.71-1.01l17.32,1.77l11.37-1.01
		l5.69,2.27l2.65,0.25h2.27l7.08,1.39c0.17,0.5,0.25,1.18,0.25,2.02c0,0.93-0.88,1.9-2.65,2.91l-3.92,7.71l0.51,3.16l1.64,9.23
		l-0.25,3.67l1.52,6.45l-0.25,3.67v0.25c0,1.77,0.93,4.97,2.78,9.61l0.88,2.78c-1.6,4.55-2.4,7.5-2.4,8.85l0.25,0.25l0.51,7.2
		l0.76,10.62l-1.27,8.09l3.16,11.63l-2.4,3.03v2.91l-1.26,10.87l-0.76,14.54l-1.01,9.86l1.01,6.7l-1.01,5.69
		c-0.08,0.25-0.15,0.53-0.19,0.82c-0.04,0.3-0.15,0.7-0.31,1.2l1.52,3.41l1.52-0.51c0.59,0,1.39,0.34,2.4,1.01l1.52-1.77h1.77
		l2.4-0.25l6.7-5.69l2.27-1.14l1.9-1.52l-1.9-21.23c-3.03-1.6-4.55-3.42-4.55-5.44c0-2.44,1.6-4.34,4.8-5.69l-0.25-5.18l-0.25-3.03
		l0.51-3.67l-1.01-4.68l0.51-3.41l-1.26-3.03c1.18-1.26,1.77-2.57,1.77-3.92v-5.43v-6.19l-3.03-3.41c0.17-1.6,0.44-2.74,0.82-3.41
		c0.38-0.67,1.12-1.35,2.21-2.02l-0.76-1.52c-0.76-0.08-1.5-0.25-2.21-0.51c-0.72-0.25-1.24-0.61-1.58-1.07
		c-0.34-0.46-0.72-1.07-1.14-1.83c3.28-2.95,4.93-5.69,4.93-8.22v-5.94l0.51-9.1c-0.25-1.09-1.77-1.85-4.55-2.27
		c0.08-1.94,0.4-3.16,0.95-3.67c0.55-0.51,1.83-0.84,3.85-1.01l-0.76-2.91l0.51-3.92l-0.25-4.55l1.39-5.94v-1.14l-0.25-4.04
		l-0.63-3.16l1.39-5.94l1.77-0.25l4.43,0.76l11.37-0.76l11.88,1.27l17.06,0.51l7.33,1.26h0.25c1.01,0,2.02-0.25,3.03-0.76l4.68-3.03
		l10.11-3.92l3.16-5.43l2.27-1.77L1089,440.59z M906.4,437.18c-1.35-0.34-1.94-0.51-1.77-0.51l-4.17,1.64l-4.42,1.26
		c-1.69,3.12-3.03,4.76-4.04,4.93l-6.57,0.51c-1.6,0-2.87,0.76-3.79,2.27v7.33l-0.25,4.04l1.77,2.66l-0.76,4.67l0.76,11.12
		l0.25,2.53c1.69,1.6,2.53,3.08,2.53,4.42v0.51l-1.52,4.68l1.01,9.35l-1.01,2.02l2.4,2.66c0,1.35-0.55,2.53-1.64,3.54l0.25,2.66
		l0.5,2.53c0.17,0.34,0.25,0.88,0.25,1.64l-0.25,12.13v3.67l1.9,2.02c-1.26,2.45-1.9,4.76-1.9,6.95c0,2.19,0.15,3.69,0.44,4.49
		c0.3,0.8,1.2,1.92,2.72,3.35l-2.27,3.54l0.25,4.93l-0.88,9.35l-0.25,5.69l-0.5,4.17l0.76-0.76l0.63,0.51l3.03-0.25
		c0.84,1.43,1.27,2.53,1.27,3.29l-0.25,1.14l-5.69,1.01v4.42v3.79l-3.29,11.12v2.91c0,1.69-0.8,4-2.4,6.95l2.15,3.16l4.55-1.01
		l0.38-1.39l1.52,0.25c2.86,0,8.13-3.46,15.8-10.37l-0.25-3.29l-0.76-4.93l0.5-11.88l-1.14-7.08l0.88-2.02l-2.4-1.26l2.4-7.08v-2.02
		l-0.25-5.43l-0.38-2.78v-4.68c-1.35-0.84-2.02-1.89-2.02-3.16v-1.01l1.77-5.94v-7.58l0.63-6.95c0-0.59-0.38-1.81-1.14-3.67
		l-1.27-3.29l2.65-4.42v-3.41l0.25-3.79l-1.89-2.91c1.26-1.26,2.06-2.34,2.4-3.22c0.34-0.89,0.51-2.3,0.51-4.24l-0.51-10.37
		l0.25-3.92l-1.9-0.76v-2.28c1.94-3.96,2.91-6.82,2.91-8.59l-1.77-13.27l2.53-4.3l0.76-4.17l0.51-3.92
		C907.16,440.33,906.91,439.03,906.4,437.18z M857.29,488.49l0.5-6.19l-2.02-8.34v-0.25l1.01-5.18c0.51-1.52,0.76-3.33,0.76-5.43
		l-0.25-10.62l0.25-4.93l-0.76-2.78l0.51-3.67c0-1.43-0.51-2.99-1.52-4.68c-2.95,1.27-4.87,2.24-5.75,2.91
		c-0.88,0.68-1.92,1.9-3.09,3.67c-7.25,1.86-10.87,4.34-10.87,7.46c0,0.67,0.17,1.69,0.51,3.03c1.94,0,3.22,0.59,3.85,1.77
		c0.63,1.18,1.16,3.62,1.58,7.33l0.51,4.42l3.92,2.91c-0.17,1.69-0.44,2.8-0.82,3.35c-0.38,0.55-1.16,0.86-2.34,0.94l0.63,32.86
		c2.02,0.85,3.03,1.81,3.03,2.91v0.25l-1.01,5.94l1.52,3.91l-2.03,3.92l-0.76,18.08l-1.64,5.18c-0.17,0.34-0.25,0.93-0.25,1.77
		c0,1.43,0.88,3.08,2.65,4.93l-2.65,6.19l0.25,15.29l-1.27,2.91l-3.67-3.16l-2.78-1.77l-5.43-8.34c-0.17-0.25-2.06-1.18-5.69-2.78
		l-2.91-1.89c-1.18-2.11-1.77-4.09-1.77-5.94l0.25-1.77l-1.77-1.77c-0.25-2.19-0.72-3.79-1.39-4.8c-0.67-1.01-2.19-2.36-4.55-4.04
		l-3.41-2.4l1.77-0.25l-5.94-8.22c-2.02-0.34-3.37-0.78-4.05-1.33c-0.67-0.55-1.22-1.67-1.64-3.35l2.4-1.26l-11.37-12.13l-1.39-4.17
		l-3.79-3.67l-5.18-7.46l-2.15-2.65l0.76-2.27l-5.18-2.91c0.76-0.84,1.14-1.77,1.14-2.78c0-0.42-0.72-1.9-2.15-4.42l-6.45-10.87
		c-3.29-5.56-5.94-9.35-7.96-11.37l0.76-0.76l-2.15-3.92l-2.27-2.91l-5.69-11.12c-1.01-2.36-2.49-3.54-4.42-3.54
		c-0.68,0-1.18,0.17-1.52,0.51l-5.94,6.95l-2.15,1.27c-0.51,1.43-1.18,2.53-2.03,3.28c-0.84,0.76-2.32,1.73-4.42,2.91l-3.16,1.9
		l-1.01,2.78l5.69,7.08c0.93,1.18,1.39,4.34,1.39,9.48v2.91c-0.76,1.85-1.14,3.08-1.14,3.67l1.14,8.72l0.25,3.67l1.26,1.77
		c-1.01,3.71-1.52,6.32-1.52,7.84c0,1.43,0.76,2.78,2.27,4.04c-0.51,1.6-0.76,2.82-0.76,3.67l1.77,4.17l0.25,3.03
		c-2.36,1.6-3.54,3.24-3.54,4.93l0.51,5.18l-0.88,7.33l1.64,5.43c0.08,0.09,0.15,0.17,0.19,0.25c0.04,0.09,0.06,0.17,0.06,0.25
		l-0.76,7.21l0.51,2.65l-0.51,2.78l2.78,3.41v1.26c-1.85,0.42-3.16,1.27-3.92,2.53l0.63,14.54l-1.9,6.7c0,0.17-0.02,0.32-0.06,0.44
		c-0.04,0.12-0.1,0.27-0.19,0.44c0,0.34,0.42,1.77,1.27,4.3l-1.52,3.67l-0.76,2.91l2.91,2.53l-2.15,3.16l-2.78,3.54
		c-0.51,0.76-0.89,2.32-1.14,4.68l-0.25,3.16l2.15-0.5l2.78,0.25h0.25c1.01,0,2.32-0.97,3.92-2.91l2.91,0.25l1.52-2.27
		c4.13-5.98,6.19-9.52,6.19-10.62c0-1.09-0.76-2.06-2.27-2.91l-0.25-1.52l1.52-7.2c0.17-0.34,0.25-0.55,0.25-0.63v-0.25l-1.52-10.87
		v-37.16l-1.14-2.91l-1.01-5.18c2.1-2.78,3.16-4.84,3.16-6.19v-0.19c0-0.04-0.09-0.15-0.25-0.32l-2.15-7.33l-0.25-3.03l2.15-1.01
		l0.76-3.67l-0.51-10.87l1.01-5.43l-0.76-2.02l3.03-1.14l-2.78-5.94l2.53-1.27c0.93,0,2.06,0.68,3.41,2.02l2.78-1.01
		c1.6,0,2.4,1.06,2.4,3.16c0,1.01-0.34,2.57-1.01,4.68c5.22,2.7,10.74,8.97,16.56,18.83l2.02,1.26l0.76-1.01l4.17,4.68l2.02,6.7
		l7.33,12.01l1.52,3.03c3.96,0,6.66,1.73,8.09,5.18l2.27,6.45l3.67,4.42l6.95,12.39c0.51,0.76,2.82,2.87,6.95,6.32
		c2.95,2.27,4.42,4.42,4.42,6.45l-0.51,2.78l2.03,2.65l5.69,9.86l7.58,9.48l5.94,9.1l1.01,2.91l4.93-2.91l1.77-2.78
		c3.46-5.39,5.83-9.58,7.14-12.58c1.3-2.99,1.96-6.17,1.96-9.54c0-1.6-0.34-3.92-1.01-6.95c-2.45-1.6-3.67-3.24-3.67-4.93
		c0-0.92,0.71-1.94,2.15-3.03l0.76,1.26l0.25-3.41l-0.51-11.88l0.76-4.42l-0.76-6.7l0.76-11.63l-0.51-8.34l1.52-5.94l-0.51-8.22
		l0.51-10.37c0-0.51-0.59-2.06-1.77-4.67c1.52-0.76,2.45-1.56,2.78-2.4L857.29,488.49z M710.72,592.27c-0.34,0-1.27,0.19-2.78,0.57
		c-1.52,0.38-2.49,0.61-2.91,0.7l-14.79,2.66l-2.53,1.01l-11.88,0.25l-2.91,0.51l0.76,1.9l-2.53-0.88l-7.33-0.25l-4.3-0.76
		l-15.04,1.01l-6.19-1.27l-7.08,0.76l-11.63-2.27h-0.51c-0.76,0-1.98,0.76-3.67,2.27c-2.45-1.35-4.34-2.02-5.69-2.02l-5.69,0.76
		l-17.07-5.94l-3.92-0.76l-1.52-24.14l-3.67-6.45l3.41-7.21c0.34-0.67,0.5-1.26,0.5-1.77c0-1.77-1.09-4.04-3.28-6.82
		c1.85-2.36,2.78-4.09,2.78-5.18v-0.25l-1.01-11.63l0.51-4.17c-0.25-1.09-1.01-2.82-2.27-5.18l1.77-5.43l-1.77-2.27l-1.14-2.03
		l2.15-6.82l-0.5-6.7l1.01-1.77l13.91,1.01l4.67-2.91l5.69,1.64l8.09-2.91l16.56,1.77l5.69-2.27c0.34-0.17,0.84-0.25,1.52-0.25
		c1.18,0,2.23,0.85,3.16,2.53l3.92,0.38l21.23-1.39l5.94,1.39l10.87-0.38l8.47,1.14h0.51c0.84,0,1.73-0.38,2.65-1.14l7.71-6.7
		l3.41-2.27v-3.92l-2.91,0.25l-2.78-0.25c-1.43,0-2.99,0.68-4.68,2.02l-2.65,1.64c-1.18-0.93-2.36-1.56-3.54-1.9l-10.37,1.39
		l-9.86,0.25l-5.43,1.27l-2.27,0.51l-9.61-1.77c-1.27,0.68-2.42,1.14-3.48,1.39c-1.06,0.25-2.34,0.38-3.85,0.38h-7.21l-7.96-0.25
		l-13.52-0.76h-0.25c-1.1,0-2.82,0.42-5.18,1.27l-3.92,0.76c-2.27-1.68-4-2.53-5.18-2.53l-17.32-1.64l-2.53-0.76l-0.25-2.78
		l-0.5-3.67l1.01-9.86l-0.51-6.7v-1.01l-1.01-1.01l2.78-4.17l17.31,1.52l3.67-1.52l2.53-0.76l0.63,2.27l3.79,0.25
		c4.8,0,8.09-1.01,9.86-3.03c2.27,0,4.59,0.76,6.95,2.28l2.65,0.25l11.63,1.27l5.69-0.76l6.7,0.51h1.39c2.86,0,6.49-1.01,10.87-3.03
		c2.02-1.09,3.24-1.94,3.67-2.53c0.42-0.59,0.72-1.64,0.88-3.16c2.11-1.01,3.48-1.91,4.11-2.72c0.63-0.8,1.16-2.17,1.58-4.11
		l-2.53-0.51c-0.76,0-3,0.72-6.7,2.15c-2.7,0.93-6.95,1.69-12.77,2.27v1.52l-3.79,0.88l-6.57-1.9l-16.81,1.01l-19.09-2.02
		c-0.17-0.17-0.51-0.25-1.01-0.25c-1.09,0-3.2,0.59-6.32,1.77l-4.8-1.52l-8.6-0.76l-18.58-3.16c-0.17-0.17-0.3-0.25-0.38-0.25h-0.25
		c-2.19,0-5.35,0.97-9.48,2.91l-2.4,0.76c-2.19,0.85-3.58,1.6-4.17,2.27l-1.27,2.66l4.93,2.02c0.76,0.25,1.28,1.06,1.58,2.4
		c0.3,1.35,0.57,4.09,0.82,8.22l2.53-0.76l2.02,0.76c-0.34,1.01-0.51,1.73-0.51,2.15c0,0.76,0.63,1.6,1.9,2.53l2.02,1.77l-6.95-1.77
		l-1.01,1.52l-0.25,3.16l0.25,1.26l1.52,2.66l0.51,8.22l1.01,2.65l2.66,0.76l-0.51,2.53l-1.14,6.19l1.14,16.05l-0.63,9.35l0.63,2.15
		c1.68,1.26,2.86,2.32,3.54,3.16c0.67,0.85,1.47,2.27,2.4,4.3l-5.18,0.25l0.76,2.91l0.25,2.78l-0.51,7.46l0.51,29.32l-0.76,3.67
		v9.48l-1.39,6.19l-0.51,6.82l-3.03,7.21l-1.26,2.91c5.56,2.02,8.72,3.03,9.48,3.03l22.25-0.76l7.33,1.52l6.45-1.77l1.27-0.25
		c1.52,0,3.67,0.92,6.45,2.78l3.67-1.77l24.9-0.25l4.42-2.27l1.26-0.25h1.52l1.01,2.53l3.16-0.51l4.67,0.25
		c0.67,0,3.58-0.5,8.72-1.52l1.39,2.02l4.05,0.51l14.28-0.51l0.76,0.25l6.19,1.9h0.25l5.43-2.66l4.68,0.51l1.01-1.26l3.42-2.4
		l2.53-5.43c0.42-0.51,1.14-0.76,2.15-0.76l2.78,0.25l1.64-5.43C712.27,592.52,711.22,592.27,710.72,592.27z M490.45,468.01
		l-2.4,6.45l-0.5,4.17l-6.95,7.58l-6.19,10.24l-8.6,3.67l-4.17,2.91l-11.37,4.04l-2.78,1.39l-2.91-1.14l-8.22,3.16l-4.17,0.51
		l-2.27,0.51l-1.64-1.52l-11.38,0.25l0.25-1.01c-3.37-1.43-5.18-3.16-5.43-5.18l1.01-5.94v-3.67l0.5-4.17l-1.01-2.78
		c-3.12-0.76-4.68-2.15-4.68-4.17c0-1.35,1.22-2.99,3.67-4.93v-3.41l-0.25-5.43l-0.25-8.22c0-4.47,0.34-7.4,1.01-8.79
		c0.67-1.39,1.9-2.09,3.67-2.09l2.02-2.4h2.66l17.57-2.02l2.02,0.25l1.64-1.26l17.82,1.52l1.77-3.03l3.41,0.51l1.52,3.54h2.15
		l1.26,0.25l5.94,2.15l4.17,0.25l4.42,3.29l4.04,3.16c2.11,1.52,3.16,4.13,3.16,7.84L490.45,468.01z M541.9,600.1h-0.25l-7.96,1.26
		c-0.09-0.08-0.19-0.15-0.32-0.19c-0.13-0.04-0.36-0.06-0.7-0.06l-2.66-2.65l-12.89-7.96l-4.42-4.17l-2.4-1.77l-5.18-1.64
		c-0.85-1.09-1.27-2.44-1.27-4.05v-1.64l-2.02-2.28l-3.92-4.42l-5.69-6.19c-2.19-1.6-3.48-2.59-3.85-2.97
		c-0.38-0.38-0.91-1.37-1.58-2.97l-5.43-2.91l0.76-3.28l-5.43-6.45l-4.93-4.42l-7.2-8.09l-2.66-3.29l-2.53,0.25
		c-1.43,0-2.27-1.3-2.53-3.92l1.27-1.01l-2.66-2.91c-1.52,0.17-2.78,0.8-3.79,1.89H449c-0.34-0.84-0.51-1.3-0.51-1.39
		c0-0.76,0.84-1.85,2.53-3.28l0.88-2.15c-1.27-1.09-1.9-2.02-1.9-2.78c0-0.34,0.08-0.67,0.25-1.01c0.51-0.34,1.05-0.51,1.64-0.51
		c0.59,0,1.26,0.25,2.02,0.76l3.67-2.91h1.01l1.77-0.25l6.19-2.02h3.16l3.92-1.39l3.03-1.26c1.68-0.84,2.91-2.4,3.67-4.68l2.53-0.25
		l4.17-2.78l4.17-1.52l5.69-6.57l2.78-1.52l1.64-2.02l-1.01-2.15c0-0.67,0.17-1.26,0.51-1.77c2.36,0,3.7-0.17,4.04-0.51l1.64-2.15
		l2.78-2.78l1.26-2.91c-1.26-0.76-2.02-2.19-2.27-4.3l4.42,0.76c1.52-4.21,2.27-7.84,2.27-10.87c0-3.37-0.74-6.26-2.21-8.66
		c-1.48-2.4-3.65-4.02-6.51-4.87l-7.84-2.27l-6.95-3.67l-8.59-0.51l-13.4-2.27h-17.82l-8.85-0.25l-3.16,0.25
		c-0.17-0.08-0.31-0.15-0.44-0.19c-0.12-0.04-0.31-0.06-0.57-0.06l-2.78-1.64l-12.77,2.4h-0.25c-0.85,0-2.11-0.8-3.79-2.4
		l-3.92,0.51l-9.1,0.51c-5.31,0.25-10.66,1.48-16.05,3.67l-1.77,0.76l-2.65,0.76l-0.51,3.41l4.93,2.91c1.6,2.36,2.4,4.76,2.4,7.2
		l-0.88,9.36l0.88,0.76v4.93v0.76c0,2.7,0.19,4.76,0.57,6.19c0.38,1.43,1.12,3.16,2.21,5.18l-0.76,4.93l0.51,9.86l0.25,5.69
		c1.09,0,2.23,0.76,3.41,2.27v4.67c-2.86,0.93-4.42,1.98-4.67,3.16l1.52,3.28l-0.76,5.94l1.01,12.26l-1.01,9.73l-0.25,5.69
		l0.25,4.17l1.27,1.52l-0.76,4.93c0,1.85,0.97,3.49,2.91,4.93l1.77,1.64c0,2.02-0.21,3.39-0.63,4.11c-0.42,0.72-1.18,1.07-2.28,1.07
		l-2.02-0.25l-1.26,2.28l0.76,9.35l-1.52,4.3l-0.25,8.6c0,2.7-0.46,4.85-1.39,6.44c-2.02,4.47-3.03,7-3.03,7.58
		c0,1.01,0.84,1.52,2.53,1.52c1.27,0,2.06-0.17,2.4-0.51l6.7-5.43c1.18-1.18,2.49-1.77,3.92-1.77h4.3l2.15-1.89l2.53-2.27
		c1.09-1.01,1.64-2.32,1.64-3.92v-0.76l-2.65-20.48l-0.25-4.17l0.76-6.7l0.25-2.53l-1.77-3.16l1.01-3.16l-0.51-3.54l0.51-5.69
		l0.51-7.33l1.01-3.03c0.17-0.34,0.25-0.97,0.25-1.9c0-1.01-0.59-1.85-1.77-2.53l0.25-5.94l1.26-3.16l0.89-3.28l2.53,0.76l8.09,6.19
		l3.29,1.27l3.67,3.41l4.42,2.27l3.54,5.43l7.33,5.44l1.77,2.15l6.19,1.27c1.43,0.34,2.15,1.48,2.15,3.41
		c0,0.76-0.21,1.69-0.63,2.78l2.65,2.65l4.42,5.18l3.54,2.02l2.4,2.78l4.17,3.41l1.77,2.02l2.03,0.63l2.91,4.05l4.93,1.9l4.17,6.19
		l4.8,1.77l1.14,7.2c0,0.09,1.09,1.48,3.29,4.17l1.64,1.9l3.03,2.53l6.45,3.92c0.5,0.17,2.15,2.32,4.93,6.45h4.42
		c2.86,0,5.56-0.34,8.09-1.01l8.97-3.16l4.68-1.26l3.16-2.28l2.78-1.89C544.72,601.03,543.08,600.1,541.9,600.1z M372.32,592.27
		c-0.34,0-1.26,0.19-2.78,0.57c-1.52,0.38-2.49,0.61-2.91,0.7l-14.79,2.66l-2.53,1.01l-11.88,0.25l-2.91,0.51l0.76,1.9l-2.53-0.88
		l-7.33-0.25l-4.3-0.76l-15.04,1.01l-6.19-1.27l-7.08,0.76l-11.63-2.27h-0.51c-0.76,0-1.98,0.76-3.67,2.27
		c-2.44-1.35-4.34-2.02-5.69-2.02l-5.69,0.76l-17.07-5.94l-3.92-0.76l-1.52-24.14l-3.67-6.45l3.41-7.21
		c0.34-0.67,0.51-1.26,0.51-1.77c0-1.77-1.1-4.04-3.29-6.82c1.85-2.36,2.78-4.09,2.78-5.18v-0.25l-1.01-11.63l0.51-4.17
		c-0.25-1.09-1.01-2.82-2.27-5.18l1.77-5.43l-1.77-2.27l-1.14-2.03l2.15-6.82l-0.51-6.7l1.01-1.77l13.9,1.01l4.68-2.91l5.69,1.64
		l8.09-2.91l16.56,1.77l5.69-2.27c0.34-0.17,0.84-0.25,1.52-0.25c1.18,0,2.23,0.85,3.16,2.53l3.92,0.38l21.24-1.39l5.94,1.39
		l10.87-0.38l8.47,1.14h0.51c0.84,0,1.73-0.38,2.66-1.14l7.71-6.7l3.41-2.27v-3.92l-2.91,0.25l-2.78-0.25
		c-1.43,0-2.99,0.68-4.68,2.02l-2.65,1.64c-1.18-0.93-2.36-1.56-3.54-1.9l-10.36,1.39l-9.86,0.25l-5.44,1.27l-2.27,0.51l-9.61-1.77
		c-1.27,0.68-2.42,1.14-3.48,1.39c-1.06,0.25-2.34,0.38-3.85,0.38h-7.21l-7.96-0.25l-13.52-0.76h-0.25c-1.09,0-2.82,0.42-5.18,1.27
		l-3.92,0.76c-2.27-1.68-4-2.53-5.18-2.53l-17.31-1.64l-2.53-0.76l-0.25-2.78l-0.51-3.67l1.01-9.86l-0.51-6.7v-1.01l-1.01-1.01
		l2.78-4.17l17.32,1.52l3.67-1.52l2.53-0.76l0.63,2.27l3.79,0.25c4.8,0,8.09-1.01,9.86-3.03c2.28,0,4.59,0.76,6.95,2.28l2.66,0.25
		l11.63,1.27l5.69-0.76l6.7,0.51h1.39c2.86,0,6.49-1.01,10.87-3.03c2.02-1.09,3.24-1.94,3.67-2.53c0.42-0.59,0.71-1.64,0.88-3.16
		c2.1-1.01,3.48-1.91,4.11-2.72c0.63-0.8,1.16-2.17,1.58-4.11l-2.53-0.51c-0.76,0-2.99,0.72-6.7,2.15
		c-2.7,0.93-6.95,1.69-12.76,2.27v1.52l-3.79,0.88l-6.57-1.9l-16.81,1.01l-19.09-2.02c-0.17-0.17-0.5-0.25-1.01-0.25
		c-1.1,0-3.21,0.59-6.32,1.77l-4.8-1.52l-8.59-0.76l-18.58-3.16c-0.17-0.17-0.3-0.25-0.38-0.25h-0.25c-2.19,0-5.35,0.97-9.48,2.91
		l-2.4,0.76c-2.19,0.85-3.58,1.6-4.17,2.27l-1.26,2.66l4.93,2.02c0.76,0.25,1.28,1.06,1.58,2.4c0.3,1.35,0.57,4.09,0.82,8.22
		l2.53-0.76l2.02,0.76c-0.34,1.01-0.51,1.73-0.51,2.15c0,0.76,0.63,1.6,1.9,2.53l2.02,1.77l-6.95-1.77l-1.01,1.52l-0.25,3.16
		l0.25,1.26l1.52,2.66l0.51,8.22l1.01,2.65l2.65,0.76l-0.51,2.53l-1.14,6.19l1.14,16.05l-0.63,9.35l0.63,2.15
		c1.69,1.26,2.86,2.32,3.54,3.16c0.67,0.85,1.47,2.27,2.4,4.3l-5.18,0.25l0.76,2.91l0.25,2.78l-0.51,7.46l0.51,29.32l-0.76,3.67
		v9.48l-1.39,6.19l-0.51,6.82l-3.03,7.21l-1.26,2.91c5.56,2.02,8.72,3.03,9.48,3.03l22.25-0.76l7.33,1.52l6.45-1.77l1.26-0.25
		c1.52,0,3.67,0.92,6.45,2.78l3.67-1.77l24.9-0.25l4.42-2.27l1.27-0.25h1.52l1.01,2.53l3.16-0.51l4.68,0.25
		c0.67,0,3.58-0.5,8.72-1.52l1.39,2.02l4.04,0.51l14.28-0.51l0.76,0.25l6.19,1.9h0.25l5.44-2.66l4.67,0.51l1.01-1.26l3.41-2.4
		l2.53-5.43c0.42-0.51,1.14-0.76,2.15-0.76l2.78,0.25l1.64-5.43C373.88,592.52,372.83,592.27,372.32,592.27z M195.28,534.67
		l-0.6-4.03l-2.39-2.99c-5.58-6.97-9.06-10.46-10.46-10.46h-0.3c-0.4,0.1-0.92,0.17-1.57,0.22c-0.65,0.05-1.04,0.07-1.19,0.07h-0.37
		l-7.62-6.72c-2.89-2.49-5.93-3.73-9.11-3.73l-5.83,0.3l-7.92-0.6l-6.72,4.33c-0.2,0-0.37,0.02-0.52,0.07
		c-0.15,0.05-0.32,0.12-0.52,0.22c-1.89,0-3.19-2.34-3.88-7.02l-4.04-0.89l-7.92-1.79c-0.4-0.2-1.1-0.3-2.09-0.3l-5.23,0.6
		l-3.73,0.6l-0.6-1.94l-9.11-0.89l-10.46,0.89l-3.29-2.99l-12.25-5.53l-5.83-4.93l-5.53-0.9l-3.14-1.19l-1.49-3.44l5.83-2.98
		c-0.99-2.29-1.49-3.93-1.49-4.93c0-1.19,0.2-2.29,0.6-3.29l-4.03-2.24l1.19-3.59l5.83-4.03l6.42-11.35l3.44-3.88l7.02-5.53
		l10.45-5.23l14.64-7.62l8.22-0.3l7.02-0.3l12.25,2.39l4.33,0.6l7.92,5.83l3.14,1.79c5.58-1.49,9.56-3.08,11.95-4.78l3.89-3.43
		c0.1-0.1,1.14-0.5,3.13-1.19c0.2-0.6,0.3-1.29,0.3-2.09c0-1.99-2.54-3.63-7.62-4.93l-7.47-1.79l-4.18-1.64l-6.72,0.3l-15.09-1.79
		l-4.48,1.79l-9.26,1.04l-3.88,0.6l-3.74,1.19l-15.98,5.23l-11.5,5.83l-7.02,4.18l-16.28,12.25l-2.69,2.09
		c0,4.08-1.14,6.97-3.43,8.66l-4.93,3.58l-1.79,4.63l-1.79,3.44l-1.94,6.12v1.49l0.6,4.93l0.45,4.78l2.99,3.44l-1.19,0.3
		c1.39,4.58,2.61,7.64,3.66,9.18c1.05,1.55,3.36,3.66,6.95,6.35c1.79-0.4,2.64-0.6,2.54-0.6l5.23,2.24l-0.3,3.28
		c2.09,1.49,4.65,2.72,7.69,3.66c3.03,0.94,7.4,1.96,13.07,3.06l8.51,1.79l3.43,0.75l3.59-4.63l4.63,5.53l20.47,0.9l0.89-1.49
		l3.14-1.64l4.33,2.54l2.99,3.29l13.44,5.23l11.06,6.72l4.33,0.3l1.2,3.43l2.99,8.22l0.6,8.81h-1.49l-4.63,13.9l-2.39,2.69l0.3,3.73
		l0.6,2.99c0,2.49-1.94,3.73-5.82,3.73c-0.8,3.29-1.6,5.63-2.39,7.02l-5.23,5.53l-4.33,5.82c-1.49,1.99-4.03,3.59-7.62,4.78
		l-6.42,2.24l-5.53,1.2l-3.29-1.2l-5.83,2.99l-18.67-1.19l-2.09,0.3c-0.3,1.99-1.14,2.99-2.54,2.99c-0.6,0-2.64-1.09-6.13-3.29
		l-20.47-4.33l-10.15-4.48l-10.01-2.84l-2.54-3.58l-2.99-1.94l-3.44,0.6c-0.5-2.09-1.04-3.48-1.64-4.18
		c-0.6-0.7-1.94-1.54-4.03-2.54l-2.24-11.2c-3.49,0.5-6.62,2.39-9.41,5.68c-2.19,2.39-4.08,5.05-5.68,7.99
		c-1.59,2.94-2.39,5.4-2.39,7.4c0,0.99,1.74,2.74,5.23,5.23l8.36,5.08l7.92,1.05l11.65,8.51l4.18,0.6l4.33,0.6l-1.79-1.49l4.18-0.9
		l9.86,5.53l17.77,1.19l4.78,1.19h13.59l7.02,0.3c3.79,0,7.12-0.8,10.01-2.39c1.69,0.6,2.74,0.9,3.14,0.9c1.49,0,3.63-0.6,6.43-1.79
		l11.65-3.73l23.45-15.24l3.14-1.64l5.82-5.53l5.83-6.12l2.69-4.48l7.92-10.46c0.8-1.19,1.19-3.83,1.19-7.92
		c0-2.49-1.1-4.33-3.29-5.53l-0.6-4.03l2.09-0.9l6.13,0.3c0.99-3.29,1.49-6.13,1.49-8.51L195.28,534.67z"/>
</g>
</svg>
